<svg id="color" enable-background="new 0 0 24 24" height="512" viewBox="0 0 24 24" width="512" xmlns="http://www.w3.org/2000/svg"><path d="m23 24c-.256 0-.512-.098-.707-.293l-6.71-6.71c-.391-.391-.391-1.023 0-1.414s1.023-.391 1.414 0l6.71 6.71c.391.391.391 1.023 0 1.414-.195.195-.451.293-.707.293z" fill="#607d8b"/><path d="m10 20c-5.514 0-10-4.486-10-10s4.486-10 10-10 10 4.486 10 10-4.486 10-10 10z" fill="#607d8b"/><path d="m10 1.5c-4.687 0-8.5 3.813-8.5 8.5s3.813 8.5 8.5 8.5 8.5-3.813 8.5-8.5-3.813-8.5-8.5-8.5z" fill="#fafafa"/><g fill="#2196f3"><circle cx="10" cy="6" r="3"/><path d="m15 14.25c0 .414-.336.75-.75.75h-8.5c-.414 0-.75-.336-.75-.75v-1.5c0-1.517 1.233-2.75 2.75-2.75h4.5c1.517 0 2.75 1.233 2.75 2.75z"/></g></svg>